<svg width="25" height="25" viewBox="0 0 25 25" fill="none" xmlns="http://www.w3.org/2000/svg">
<path d="M17.25 3.50006C17.5126 3.23741 17.8244 3.02907 18.1676 2.88693C18.5108 2.74479 18.8786 2.67163 19.25 2.67163C19.6214 2.67163 19.9892 2.74479 20.3324 2.88693C20.6756 3.02907 20.9874 3.23741 21.25 3.50006C21.5126 3.7627 21.721 4.07451 21.8631 4.41767C22.0053 4.76083 22.0784 5.12862 22.0784 5.50006C22.0784 5.87149 22.0053 6.23929 21.8631 6.58245C21.721 6.92561 21.5126 7.23741 21.25 7.50006L7.75 21.0001L2.25 22.5001L3.75 17.0001L17.25 3.50006Z" stroke="#CDCFD0" stroke-width="2" stroke-linecap="round" stroke-linejoin="round"/>
</svg>
